<svg width="60.254" height="60.254" fill="#7E88C3" xmlns="http://www.w3.org/2000/svg">
  <path d="M29.008 48.308C12.532 48.308.672 31.279.175 30.554c-.248-.36-.231-.841.039-1.184.561-.712 13.906-17.424 29.913-17.424 17.953 0 29.474 16.769 29.956 17.482.23.342.229.79-.007 1.129-.475.688-11.842 16.818-29.899 17.721-.391.019-.781.03-1.169.03zM2.267 30.028c2.326 3.098 13.553 16.967 27.812 16.254 15.237-.76 25.762-13.453 27.938-16.3-2.175-2.912-12.811-16.035-27.889-16.035-13.428 0-25.357 13.137-27.861 16.081z"/>
  <path d="M30.127 42.614c-6.885 0-12.486-5.602-12.486-12.486 0-6.883 5.602-12.485 12.486-12.485s12.486 5.602 12.486 12.485c0 6.884-5.6 12.486-12.486 12.486zm0-22.973c-5.782 0-10.486 4.704-10.486 10.486 0 5.781 4.704 10.485 10.486 10.485s10.486-4.704 10.486-10.485c0-5.782-4.703-10.486-10.486-10.486z"/>
  <path d="m28.959 29.034 29.816-17.088 1.479 1.946-30.01 17.166-28.765 17.25L0 46.705z"/>
</svg>
