<svg xmlns="http://www.w3.org/2000/svg" viewBox="0 0 499.6 499.6" xml:space="preserve">
  <circle cx="249.6" cy="250" r="249.6" fill="#063f66"/>
  <path d="M72.8 73.2c97.6-97.6 256-97.6 353.6 0s97.6 256 0 353.6" fill="#022730"/>
  <g fill="#dcf9f6">
    <ellipse cx="133.6" cy="425.2" rx="2.4" ry="21.6"/>
    <ellipse cx="133.6" cy="426" rx="21.6" ry="2.4"/>
    <ellipse transform="rotate(-45.138 426.4741 150.9849)" cx="426.474" cy="150.981" rx="21.6" ry="2.4"/>
    <ellipse transform="rotate(45.138 426.2273 151.2423)" cx="426.225" cy="151.245" rx="21.6" ry="2.4"/>
    <ellipse cx="366.4" cy="84.4" rx=".8" ry="9.6"/>
    <ellipse cx="366.4" cy="84.4" rx="9.6" ry=".8"/>
    <ellipse transform="rotate(-135.292 178.3867 102.9071)" cx="178.387" cy="102.907" rx="10.4" ry=".8"/>
    <ellipse transform="rotate(-44.708 178.4908 102.7413)" cx="178.491" cy="102.742" rx="10.4" ry=".8"/>
    <ellipse transform="rotate(-135.145 96.5705 365.4422)" cx="96.571" cy="365.441" rx="10.4" ry=".8"/>
    <ellipse transform="rotate(-44.855 97.1367 365.1998)" cx="97.139" cy="365.198" rx="10.4" ry=".8"/>
    <ellipse transform="rotate(-45.583 303.3825 74.8813)" cx="303.395" cy="74.884" rx="4.8" ry=".8"/>
    <ellipse transform="rotate(45.583 303.488 75.2264)" cx="303.501" cy="75.23" rx="4.8" ry=".8"/>
    <ellipse transform="rotate(-45.592 215.4882 446.7365)" cx="215.498" cy="446.756" rx="4.8" ry=".8"/>
    <ellipse transform="rotate(45.592 215.77 447.1758)" cx="215.78" cy="447.195" rx="4.8" ry=".8"/>
    <circle cx="249.6" cy="250" r="160"/>
  </g>
  <path d="M321.6 250c0 88 16 160-72 160s-160-72-160-160 72-160 160-160 72 72 72 160z" fill="#95bfb9"/>
  <g fill="#78a8a0">
    <circle cx="138.4" cy="165.2" r="9.6"/>
    <circle cx="124.8" cy="201.2" r="1.6"/>
    <circle cx="189.6" cy="222" r="29.6"/>
    <circle cx="202.4" cy="157.2" r="8"/>
    <circle cx="257.6" cy="153.2" r="2.4"/>
    <circle cx="278.4" cy="126" r="2.4"/>
    <circle cx="201.6" cy="127.6" r="4"/>
    <circle cx="233.6" cy="114" r="1.6"/>
    <circle cx="270.4" cy="206" r="6.4"/>
    <circle cx="318.4" cy="202" r="4"/>
  </g>
  <circle cx="328.8" cy="156.4" r="6.4" fill="#95bfb9"/>
  <g fill="#78a8a0">
    <circle cx="300.8" cy="285.2" r="17.6"/>
    <circle cx="156" cy="295.6" r="5.6"/>
    <circle cx="213.6" cy="271.6" r="2.4"/>
    <circle cx="241.6" cy="331.6" r="9.6"/>
    <circle cx="124.8" cy="254.8" r="6.4"/>
    <circle cx="267.2" cy="250.8" r="1.6"/>
  </g>
  <circle cx="344" cy="254" r="4" fill="#95bfb9"/>
  <g fill="#78a8a0">
    <circle cx="174.4" cy="339.6" r="9.6"/>
    <circle cx="193.6" cy="305.2" r="3.2"/>
    <circle cx="292.8" cy="342.8" r="3.2"/>
    <circle cx="241.6" cy="369.2" r="2.4"/>
    <circle cx="201.6" cy="365.2" r="1.6"/>
  </g>
  <circle cx="332.8" cy="328.4" r="6.4" fill="#95bfb9"/>
  <g fill="#78a8a0">
    <circle cx="284" cy="375.6" r="4"/>
    <circle cx="245.6" cy="289.2" r="3.2"/>
  </g>
  <circle cx="353.6" cy="300.4" r="6.4" fill="#95bfb9"/>
  <g fill="#78a8a0">
    <circle cx="134.4" cy="323.6" r="5.6"/>
    <circle cx="309.6" cy="241.2" r="7.2"/>
  </g>
</svg>
